<?xml version="1.0" encoding="us-ascii" standalone="no"?><svg xmlns="http://www.w3.org/2000/svg" xmlns:xlink="http://www.w3.org/1999/xlink" contentStyleType="text/css" height="4203px" preserveAspectRatio="none" style="width:1830px;height:4203px;background:#FFFFFF;" version="1.1" viewBox="0 0 1830 4203" width="1830px" zoomAndPan="magnify"><defs/><g><rect fill="#FF6347" height="135.6563" id="_title" rx="22.5" ry="22.5" style="stroke:#FF0000;stroke-width:6.0;" width="306" x="757.5" y="45"/><text fill="#000000" font-family="sans-serif" font-size="42" font-weight="bold" lengthAdjust="spacing" textLength="264" x="772.5" y="103.5996">Visualization</text><text fill="#000000" font-family="sans-serif" font-size="42" font-weight="bold" lengthAdjust="spacing" textLength="261" x="780" y="156.4277">Architecture</text><path d="M436.5,198.6563 L436.5,250.7109 L376.5,262.7109 L436.5,274.7109 L436.5,326.7656 A0,0 0 0 0 436.5,326.7656 L1138.5,326.7656 A0,0 0 0 0 1138.5,326.7656 L1138.5,228.6563 L1108.5,198.6563 L436.5,198.6563 A0,0 0 0 0 436.5,198.6563 " fill="#FEFFDD" style="stroke:#181818;stroke-width:1.5;"/><path d="M1108.5,198.6563 L1108.5,228.6563 L1138.5,228.6563 L1108.5,198.6563 " fill="#FEFFDD" style="stroke:#181818;stroke-width:1.5;"/><text fill="#000000" font-family="sans-serif" font-size="39" lengthAdjust="spacing" textLength="639" x="454.5" y="254.1416">Objective: Visualization Architecture:</text><text fill="#000000" font-family="sans-serif" font-size="39" lengthAdjust="spacing" textLength="12" x="466.5" y="303.1963">-</text><ellipse cx="346.5" cy="262.7109" fill="#222222" rx="30" ry="30" style="stroke:#222222;stroke-width:3.0;"/><rect fill="none" height="817.4297" style="stroke:#000000;stroke-width:4.5;" width="1683" x="114" y="356.7656"/><path d="M258,356.7656 L258,388.5938 L228,418.5938 L114,418.5938 " fill="none" style="stroke:#000000;stroke-width:4.5;"/><text fill="#000000" font-family="sans-serif" font-size="42" lengthAdjust="spacing" textLength="102" x="123" y="403.3652">Data:</text><path d="M469.5,448.5938 L469.5,549.7031 L409.5,561.7031 L469.5,573.7031 L469.5,674.8125 A0,0 0 0 0 469.5,674.8125 L988.5,674.8125 A0,0 0 0 0 988.5,674.8125 L988.5,478.5938 L958.5,448.5938 L469.5,448.5938 A0,0 0 0 0 469.5,448.5938 " fill="#FEFFDD" style="stroke:#181818;stroke-width:1.5;"/><path d="M958.5,448.5938 L958.5,478.5938 L988.5,478.5938 L958.5,448.5938 " fill="#FEFFDD" style="stroke:#181818;stroke-width:1.5;"/><text fill="#000000" font-family="sans-serif" font-size="39" lengthAdjust="spacing" textLength="93" x="487.5" y="504.0791">Pros:</text><text fill="#000000" font-family="sans-serif" font-size="39" lengthAdjust="spacing" textLength="261" x="487.5" y="553.1338">- easy difinition</text><text fill="#000000" font-family="sans-serif" font-size="39" lengthAdjust="spacing" textLength="102" x="487.5" y="602.1885">Cons:</text><text fill="#000000" font-family="sans-serif" font-size="39" lengthAdjust="spacing" textLength="444" x="487.5" y="651.2432">- difficult for complex data</text><rect fill="#F1F1F1" height="105.2813" rx="37.5" ry="37.5" style="stroke:#181818;stroke-width:1.5;" width="126" x="283.5" y="509.0625"/><text fill="#000000" font-family="sans-serif" font-size="36" lengthAdjust="spacing" textLength="66" x="313.5" y="576.4336">.yml</text><path d="M468,704.8125 L468,805.9219 L408,817.9219 L468,829.9219 L468,931.0313 A0,0 0 0 0 468,931.0313 L1767,931.0313 A0,0 0 0 0 1767,931.0313 L1767,734.8125 L1737,704.8125 L468,704.8125 A0,0 0 0 0 468,704.8125 " fill="#FEFFDD" style="stroke:#181818;stroke-width:1.5;"/><path d="M1737,704.8125 L1737,734.8125 L1767,734.8125 L1737,704.8125 " fill="#FEFFDD" style="stroke:#181818;stroke-width:1.5;"/><text fill="#000000" font-family="sans-serif" font-size="39" lengthAdjust="spacing" textLength="597" x="486" y="760.2979">directly from multiple data sources</text><text fill="#000000" font-family="sans-serif" font-size="39" lengthAdjust="spacing" textLength="555" x="486" y="809.3525">able to define a more clean data</text><text fill="#000000" font-family="sans-serif" font-size="39" lengthAdjust="spacing" textLength="774" x="486" y="858.4072">able to metadata as required to filter and plot</text><text fill="#000000" font-family="sans-serif" font-size="39" lengthAdjust="spacing" textLength="1236" x="486" y="907.4619">- can metadata be added directly to CSV coming from the data source?</text><rect fill="#F1F1F1" height="105.2813" rx="37.5" ry="37.5" style="stroke:#181818;stroke-width:1.5;" width="123" x="285" y="765.2813"/><text fill="#000000" font-family="sans-serif" font-size="36" lengthAdjust="spacing" textLength="63" x="315" y="832.6523">.csv</text><path d="M609,961.0313 L609,1037.6133 L549,1049.6133 L609,1061.6133 L609,1138.1953 A0,0 0 0 0 609,1138.1953 L1113,1138.1953 A0,0 0 0 0 1113,1138.1953 L1113,991.0313 L1083,961.0313 L609,961.0313 A0,0 0 0 0 609,961.0313 " fill="#FEFFDD" style="stroke:#181818;stroke-width:1.5;"/><path d="M1083,961.0313 L1083,991.0313 L1113,991.0313 L1083,961.0313 " fill="#FEFFDD" style="stroke:#181818;stroke-width:1.5;"/><text fill="#000000" font-family="sans-serif" font-size="39" lengthAdjust="spacing" textLength="441" x="627" y="1016.5166">onerous requirements for:</text><text fill="#000000" font-family="sans-serif" font-size="39" lengthAdjust="spacing" textLength="204" x="627" y="1065.5713">- data clean</text><text fill="#000000" font-family="sans-serif" font-size="39" lengthAdjust="spacing" textLength="357" x="627" y="1114.626">- data transformation</text><rect fill="#F1F1F1" height="105.2813" rx="37.5" ry="37.5" style="stroke:#181818;stroke-width:1.5;" width="405" x="144" y="996.9727"/><text fill="#000000" font-family="sans-serif" font-size="36" lengthAdjust="spacing" textLength="147" x="174" y="1064.3438">.xlsx (Not</text><text fill="#000000" font-family="sans-serif" font-size="36" font-weight="bold" lengthAdjust="spacing" textLength="177" x="330" y="1064.3438">Supported</text><text fill="#000000" font-family="sans-serif" font-size="36" lengthAdjust="spacing" textLength="12" x="507" y="1064.3438">)</text><rect fill="none" height="596.0859" style="stroke:#000000;stroke-width:4.5;" width="1488" x="33" y="1204.1953"/><path d="M282,1204.1953 L282,1236.0234 L252,1266.0234 L33,1266.0234 " fill="none" style="stroke:#000000;stroke-width:4.5;"/><text fill="#000000" font-family="sans-serif" font-size="42" lengthAdjust="spacing" textLength="207" x="42" y="1250.7949">Transform:</text><path d="M615,1330.1367 L615,1357.6641 L555,1369.6641 L615,1381.6641 L615,1409.1914 A0,0 0 0 0 615,1409.1914 L1257,1409.1914 A0,0 0 0 0 1257,1409.1914 L1257,1360.1367 L1227,1330.1367 L615,1330.1367 A0,0 0 0 0 615,1330.1367 " fill="#FEFFDD" style="stroke:#181818;stroke-width:1.5;"/><path d="M1227,1330.1367 L1227,1360.1367 L1257,1360.1367 L1227,1330.1367 " fill="#FEFFDD" style="stroke:#181818;stroke-width:1.5;"/><text fill="#000000" font-family="sans-serif" font-size="39" lengthAdjust="spacing" textLength="579" x="633" y="1385.6221">able to filter data by column value</text><rect fill="#F1F1F1" height="105.2813" rx="37.5" ry="37.5" style="stroke:#181818;stroke-width:1.5;" width="417" x="138" y="1317.0234"/><text fill="#000000" font-family="sans-serif" font-size="36" lengthAdjust="spacing" textLength="357" x="168" y="1384.3945">filter - df column value</text><path d="M690,1470.8906 L690,1522.9453 L630,1534.9453 L690,1546.9453 L690,1599 A0,0 0 0 0 690,1599 L1491,1599 A0,0 0 0 0 1491,1599 L1491,1500.8906 L1461,1470.8906 L690,1470.8906 A0,0 0 0 0 690,1470.8906 " fill="#FEFFDD" style="stroke:#181818;stroke-width:1.5;"/><path d="M1461,1470.8906 L1461,1500.8906 L1491,1500.8906 L1461,1470.8906 " fill="#FEFFDD" style="stroke:#181818;stroke-width:1.5;"/><text fill="#000000" font-family="sans-serif" font-size="39" font-weight="bold" lengthAdjust="spacing" textLength="372" x="708" y="1526.376">To be Implemented</text><text fill="#000000" font-family="sans-serif" font-size="39" lengthAdjust="spacing" textLength="738" x="708" y="1575.4307">able to filter data by column value contains</text><rect fill="#F1F1F1" height="105.2813" rx="37.5" ry="37.5" style="stroke:#181818;stroke-width:1.5;" width="567" x="63" y="1482.3047"/><text fill="#000000" font-family="sans-serif" font-size="36" lengthAdjust="spacing" textLength="507" x="93" y="1549.6758">filter - df column value contains</text><path d="M564,1672.1133 L564,1699.6406 L504,1711.6406 L564,1723.6406 L564,1751.168 A0,0 0 0 0 564,1751.168 L999,1751.168 A0,0 0 0 0 999,1751.168 L999,1702.1133 L969,1672.1133 L564,1672.1133 A0,0 0 0 0 564,1672.1133 " fill="#FEFFDD" style="stroke:#181818;stroke-width:1.5;"/><path d="M969,1672.1133 L969,1702.1133 L999,1702.1133 L969,1672.1133 " fill="#FEFFDD" style="stroke:#181818;stroke-width:1.5;"/><text fill="#000000" font-family="sans-serif" font-size="39" font-weight="bold" lengthAdjust="spacing" textLength="372" x="582" y="1727.5986">To be Implemented</text><rect fill="#F1F1F1" height="105.2813" rx="37.5" ry="37.5" style="stroke:#181818;stroke-width:1.5;" width="315" x="189" y="1659"/><text fill="#000000" font-family="sans-serif" font-size="36" lengthAdjust="spacing" textLength="255" x="219" y="1726.3711">sort - df column</text><rect fill="none" height="304.9922" style="stroke:#000000;stroke-width:4.5;" width="1089" x="180" y="1830.2813"/><path d="M414,1830.2813 L414,1862.1094 L384,1892.1094 L180,1892.1094 " fill="none" style="stroke:#000000;stroke-width:4.5;"/><text fill="#000000" font-family="sans-serif" font-size="42" lengthAdjust="spacing" textLength="204" x="189" y="1876.8809">plot: labels</text><path d="M543,1922.1094 L543,1998.6914 L483,2010.6914 L543,2022.6914 L543,2099.2734 A0,0 0 0 0 543,2099.2734 L1239,2099.2734 A0,0 0 0 0 1239,2099.2734 L1239,1952.1094 L1209,1922.1094 L543,1922.1094 A0,0 0 0 0 543,1922.1094 " fill="#FEFFDD" style="stroke:#181818;stroke-width:1.5;"/><path d="M1209,1922.1094 L1209,1952.1094 L1239,1952.1094 L1209,1922.1094 " fill="#FEFFDD" style="stroke:#181818;stroke-width:1.5;"/><text fill="#000000" font-family="sans-serif" font-size="39" lengthAdjust="spacing" textLength="633" x="561" y="1977.5947">Mainly for making plot legend unique</text><text fill="#000000" font-family="sans-serif" font-size="39" lengthAdjust="spacing" textLength="156" x="561" y="2026.6494">Used for:</text><text fill="#000000" font-family="sans-serif" font-size="39" lengthAdjust="spacing" textLength="264" x="561" y="2075.7041">- Legend labels</text><rect fill="#F1F1F1" height="105.2813" rx="37.5" ry="37.5" style="stroke:#181818;stroke-width:1.5;" width="273" x="210" y="1958.0508"/><text fill="#000000" font-family="sans-serif" font-size="36" lengthAdjust="spacing" textLength="213" x="240" y="2025.4219">Group labels</text><rect fill="none" height="403.1016" style="stroke:#000000;stroke-width:4.5;" width="768" x="229.5" y="2165.2734"/><path d="M481.5,2165.2734 L481.5,2197.1016 L451.5,2227.1016 L229.5,2227.1016 " fill="none" style="stroke:#000000;stroke-width:4.5;"/><text fill="#000000" font-family="sans-serif" font-size="42" lengthAdjust="spacing" textLength="222" x="238.5" y="2211.873">plot: legend</text><path d="M493.5,2257.1016 L493.5,2382.7383 L433.5,2394.7383 L493.5,2406.7383 L493.5,2532.375 A0,0 0 0 0 493.5,2532.375 L967.5,2532.375 A0,0 0 0 0 967.5,2532.375 L967.5,2287.1016 L937.5,2257.1016 L493.5,2257.1016 A0,0 0 0 0 493.5,2257.1016 " fill="#FEFFDD" style="stroke:#181818;stroke-width:1.5;"/><path d="M937.5,2257.1016 L937.5,2287.1016 L967.5,2287.1016 L937.5,2257.1016 " fill="#FEFFDD" style="stroke:#181818;stroke-width:1.5;"/><text fill="#000000" font-family="sans-serif" font-size="39" lengthAdjust="spacing" textLength="156" x="511.5" y="2312.5869">Used for:</text><text fill="#000000" font-family="sans-serif" font-size="39" lengthAdjust="spacing" textLength="234" x="511.5" y="2361.6416">- plot legends</text><text fill="#000000" font-family="sans-serif" font-size="39" lengthAdjust="spacing" textLength="369" x="511.5" y="2410.6963">Autogenerated using:</text><text fill="#000000" font-family="sans-serif" font-size="39" lengthAdjust="spacing" textLength="213" x="511.5" y="2459.751">- group label</text><text fill="#000000" font-family="sans-serif" font-size="39" lengthAdjust="spacing" textLength="399" x="511.5" y="2508.8057">- x column or y column</text><rect fill="#F1F1F1" height="105.2813" rx="37.5" ry="37.5" style="stroke:#181818;stroke-width:1.5;" width="174" x="259.5" y="2342.0977"/><text fill="#000000" font-family="sans-serif" font-size="36" lengthAdjust="spacing" textLength="114" x="289.5" y="2409.4688">legend</text><rect fill="none" height="501.2109" style="stroke:#000000;stroke-width:4.5;" width="897" x="210" y="2598.375"/><path d="M507,2598.375 L507,2630.2031 L477,2660.2031 L210,2660.2031 " fill="none" style="stroke:#000000;stroke-width:4.5;"/><text fill="#000000" font-family="sans-serif" font-size="42" lengthAdjust="spacing" textLength="267" x="219" y="2644.9746">plot: line-color</text><path d="M513,2690.2031 L513,2864.8945 L453,2876.8945 L513,2888.8945 L513,3063.5859 A0,0 0 0 0 513,3063.5859 L1077,3063.5859 A0,0 0 0 0 1077,3063.5859 L1077,2720.2031 L1047,2690.2031 L513,2690.2031 A0,0 0 0 0 513,2690.2031 " fill="#FEFFDD" style="stroke:#181818;stroke-width:1.5;"/><path d="M1047,2690.2031 L1047,2720.2031 L1077,2720.2031 L1047,2690.2031 " fill="#FEFFDD" style="stroke:#181818;stroke-width:1.5;"/><text fill="#000000" font-family="sans-serif" font-size="39" lengthAdjust="spacing" textLength="156" x="531" y="2745.6885">Used for:</text><text fill="#000000" font-family="sans-serif" font-size="39" lengthAdjust="spacing" textLength="180" x="531" y="2794.7432">- line color</text><text fill="#000000" font-family="sans-serif" font-size="39" lengthAdjust="spacing" textLength="240" x="531" y="2843.7979">- marker color</text><text fill="#000000" font-family="sans-serif" font-size="39" lengthAdjust="spacing" textLength="240" x="531" y="2892.8525">- marker color</text><text fill="#000000" font-family="sans-serif" font-size="39" lengthAdjust="spacing" textLength="369" x="531" y="2941.9072">Autogenerated using:</text><text fill="#000000" font-family="sans-serif" font-size="39" lengthAdjust="spacing" textLength="255" x="531" y="2990.9619">- color function</text><text fill="#000000" font-family="sans-serif" font-size="39" lengthAdjust="spacing" textLength="501" x="531" y="3040.0166">- Based on number of groups</text><rect fill="#F1F1F1" height="105.2813" rx="37.5" ry="37.5" style="stroke:#181818;stroke-width:1.5;" width="213" x="240" y="2824.2539"/><text fill="#000000" font-family="sans-serif" font-size="36" lengthAdjust="spacing" textLength="153" x="270" y="2891.625">line-color</text><rect fill="none" height="403.1016" style="stroke:#000000;stroke-width:4.5;" width="891" x="213" y="3129.5859"/><path d="M504,3129.5859 L504,3161.4141 L474,3191.4141 L213,3191.4141 " fill="none" style="stroke:#000000;stroke-width:4.5;"/><text fill="#000000" font-family="sans-serif" font-size="42" lengthAdjust="spacing" textLength="261" x="222" y="3176.1855">plot: line-style</text><path d="M510,3221.4141 L510,3347.0508 L450,3359.0508 L510,3371.0508 L510,3496.6875 A0,0 0 0 0 510,3496.6875 L1074,3496.6875 A0,0 0 0 0 1074,3496.6875 L1074,3251.4141 L1044,3221.4141 L510,3221.4141 A0,0 0 0 0 510,3221.4141 " fill="#FEFFDD" style="stroke:#181818;stroke-width:1.5;"/><path d="M1044,3221.4141 L1044,3251.4141 L1074,3251.4141 L1044,3221.4141 " fill="#FEFFDD" style="stroke:#181818;stroke-width:1.5;"/><text fill="#000000" font-family="sans-serif" font-size="39" lengthAdjust="spacing" textLength="156" x="528" y="3276.8994">Used for:</text><text fill="#000000" font-family="sans-serif" font-size="39" lengthAdjust="spacing" textLength="180" x="528" y="3325.9541">- line style</text><text fill="#000000" font-family="sans-serif" font-size="39" lengthAdjust="spacing" textLength="369" x="528" y="3375.0088">Autogenerated using:</text><text fill="#000000" font-family="sans-serif" font-size="39" lengthAdjust="spacing" textLength="327" x="528" y="3424.0635">- line style function</text><text fill="#000000" font-family="sans-serif" font-size="39" lengthAdjust="spacing" textLength="501" x="528" y="3473.1182">- Based on number of groups</text><rect fill="#F1F1F1" height="105.2813" rx="37.5" ry="37.5" style="stroke:#181818;stroke-width:1.5;" width="207" x="243" y="3306.4102"/><text fill="#000000" font-family="sans-serif" font-size="36" lengthAdjust="spacing" textLength="147" x="273" y="3373.7813">line-style</text><rect fill="none" height="403.1016" style="stroke:#000000;stroke-width:4.5;" width="999" x="213" y="3562.6875"/><path d="M441,3562.6875 L441,3594.5156 L411,3624.5156 L213,3624.5156 " fill="none" style="stroke:#000000;stroke-width:4.5;"/><text fill="#000000" font-family="sans-serif" font-size="42" lengthAdjust="spacing" textLength="198" x="222" y="3609.2871">plot: alpha</text><path d="M510,3654.5156 L510,3780.1523 L450,3792.1523 L510,3804.1523 L510,3929.7891 A0,0 0 0 0 510,3929.7891 L1182,3929.7891 A0,0 0 0 0 1182,3929.7891 L1182,3684.5156 L1152,3654.5156 L510,3654.5156 A0,0 0 0 0 510,3654.5156 " fill="#FEFFDD" style="stroke:#181818;stroke-width:1.5;"/><path d="M1152,3654.5156 L1152,3684.5156 L1182,3684.5156 L1152,3654.5156 " fill="#FEFFDD" style="stroke:#181818;stroke-width:1.5;"/><text fill="#000000" font-family="sans-serif" font-size="39" lengthAdjust="spacing" textLength="156" x="528" y="3710.001">Used for:</text><text fill="#000000" font-family="sans-serif" font-size="39" lengthAdjust="spacing" textLength="180" x="528" y="3759.0557">- line style</text><text fill="#000000" font-family="sans-serif" font-size="39" lengthAdjust="spacing" textLength="609" x="528" y="3808.1104">Transperency autogenerated using:</text><text fill="#000000" font-family="sans-serif" font-size="39" lengthAdjust="spacing" textLength="159" x="528" y="3857.165">- function</text><text fill="#000000" font-family="sans-serif" font-size="39" lengthAdjust="spacing" textLength="501" x="528" y="3906.2197">- Based on number of groups</text><rect fill="#F1F1F1" height="105.2813" rx="37.5" ry="37.5" style="stroke:#181818;stroke-width:1.5;" width="207" x="243" y="3739.5117"/><text fill="#000000" font-family="sans-serif" font-size="36" lengthAdjust="spacing" textLength="147" x="273" y="3806.8828">line-style</text><ellipse cx="346.5" cy="4058.7891" fill="none" rx="33" ry="33" style="stroke:#222222;stroke-width:3.0;"/><ellipse cx="346.5" cy="4058.7891" fill="#222222" rx="18" ry="18" style="stroke:#222222;stroke-width:3.0;"/><line style="stroke:#181818;stroke-width:3.0;" x1="346.5" x2="346.5" y1="614.3438" y2="765.2813"/><polygon fill="#181818" points="334.5,735.2813,346.5,765.2813,358.5,735.2813,346.5,747.2813" style="stroke:#181818;stroke-width:3.0;"/><line style="stroke:#181818;stroke-width:3.0;" x1="346.5" x2="346.5" y1="870.5625" y2="996.9727"/><polygon fill="#181818" points="334.5,966.9727,346.5,996.9727,358.5,966.9727,346.5,978.9727" style="stroke:#181818;stroke-width:3.0;"/><line style="stroke:#181818;stroke-width:3.0;" x1="346.5" x2="346.5" y1="292.7109" y2="509.0625"/><polygon fill="#181818" points="334.5,479.0625,346.5,509.0625,358.5,479.0625,346.5,491.0625" style="stroke:#181818;stroke-width:3.0;"/><line style="stroke:#181818;stroke-width:3.0;" x1="346.5" x2="346.5" y1="1422.3047" y2="1482.3047"/><polygon fill="#181818" points="334.5,1452.3047,346.5,1482.3047,358.5,1452.3047,346.5,1464.3047" style="stroke:#181818;stroke-width:3.0;"/><line style="stroke:#181818;stroke-width:3.0;" x1="346.5" x2="346.5" y1="1587.5859" y2="1659"/><polygon fill="#181818" points="334.5,1629,346.5,1659,358.5,1629,346.5,1641" style="stroke:#181818;stroke-width:3.0;"/><line style="stroke:#181818;stroke-width:3.0;" x1="346.5" x2="346.5" y1="1102.2539" y2="1317.0234"/><polygon fill="#181818" points="334.5,1287.0234,346.5,1317.0234,358.5,1287.0234,346.5,1299.0234" style="stroke:#181818;stroke-width:3.0;"/><line style="stroke:#181818;stroke-width:3.0;" x1="346.5" x2="346.5" y1="1764.2813" y2="1958.0508"/><polygon fill="#181818" points="334.5,1928.0508,346.5,1958.0508,358.5,1928.0508,346.5,1940.0508" style="stroke:#181818;stroke-width:3.0;"/><line style="stroke:#181818;stroke-width:3.0;" x1="346.5" x2="346.5" y1="2063.332" y2="2342.0977"/><polygon fill="#181818" points="334.5,2312.0977,346.5,2342.0977,358.5,2312.0977,346.5,2324.0977" style="stroke:#181818;stroke-width:3.0;"/><line style="stroke:#181818;stroke-width:3.0;" x1="346.5" x2="346.5" y1="2447.3789" y2="2824.2539"/><polygon fill="#181818" points="334.5,2794.2539,346.5,2824.2539,358.5,2794.2539,346.5,2806.2539" style="stroke:#181818;stroke-width:3.0;"/><line style="stroke:#181818;stroke-width:3.0;" x1="346.5" x2="346.5" y1="2929.5352" y2="3306.4102"/><polygon fill="#181818" points="334.5,3276.4102,346.5,3306.4102,358.5,3276.4102,346.5,3288.4102" style="stroke:#181818;stroke-width:3.0;"/><line style="stroke:#181818;stroke-width:3.0;" x1="346.5" x2="346.5" y1="3411.6914" y2="3739.5117"/><polygon fill="#181818" points="334.5,3709.5117,346.5,3739.5117,358.5,3709.5117,346.5,3721.5117" style="stroke:#181818;stroke-width:3.0;"/><line style="stroke:#181818;stroke-width:3.0;" x1="346.5" x2="346.5" y1="3844.793" y2="4025.7891"/><polygon fill="#181818" points="334.5,3995.7891,346.5,4025.7891,358.5,3995.7891,346.5,4007.7891" style="stroke:#181818;stroke-width:3.0;"/><text fill="#888888" font-family="sans-serif" font-size="30" lengthAdjust="spacing" textLength="288" x="766.5" y="4119.9316">2024.05.30 at 10:55</text><text fill="#888888" font-family="sans-serif" font-size="30" lengthAdjust="spacing" textLength="309" x="756" y="4157.666">viz_architecture.puml</text><!--SRC=[lLPBRzD04BxxLumgLMqZfH8WBkQ0sY1H90e8GazS9lOuMR8FTnzL0kA_CxjEtTf9c_G1UuftNj_tpUnkN86Iu5NcvaBNQ5615rxIgR4bsQycw79ah2OBBrvlzXdFH37Nv1oytEmmCj9Oi5IkcR6OJsrJ8hgCZK9liYmPuKAuW5ByGY-CXX_wn1OpuQdmmLAMEO_MPndmqiOJM36T-VGPr-V9JtOKLvJtqjnEahVkC8JqctIPiZLv6IaZYL5xxz1Z3dlmEsjZykEbaczkKcm64jSNQrpUsHa2eLj2AIgXKuMETMJqcZ-xLg88qaF5GXL6rP8MK38iw7Xs6JGu2tUr4qukObaPkOJA6WMAgmakqrHn9jY2N3S09sps1afY8WG8obY2GXBg5BNPMv77b1CTJyLbuAfbtA-4z3ndo1HgQNhOXb1mqZPqmjNAakDQp9nWzEqYIYFqj67WPntmRxSgjP1k0OUVZ8V1u5keQsCzbOF1qMxo6Jub9hIS56dlOhloFfE4AQcqqU8jQiTngXdPpQZZnv-rEHrVXpR3sZ9RISi5AbP81gNX2cMWdOXTzssLfD5_sSbpDyPxo_E7zYYqsmd7O30siV4Vul17TMDl7egqBRa5ikFUtmRyJ0Ytz2_EVGuI9oHTfu7lURBgbM4dAEVCCPvalYqKpkEHYBb1qZH225fSzhhstV5fYjCAlQldOnFIr7u4cHJU8TDixKIZHTK3TOjC5zD9y8PtoIAB3y4nytxiz4RBdcLnFIgiMZisZw3Cb-6mY4zQbtQx_IJgCGsaD3s3GZid-p3J3dAb8AY2BjPUgY6SOaJ9r7LG4wvWgaRUUmVbRj6SNqfQ5orjFrsqbEQXz6yY_xq6AEiP_aVwwRceoP8kbe3RjNXE0VWVdAcph3AyPRDzlglfS6_9w_Zy_BWi3m0z79oTvKhj7MNxVAEJHaM7HrdCiuhw2m00]--></g></svg>