<?xml version="1.0" encoding="UTF-8" standalone="no"?><svg xmlns="http://www.w3.org/2000/svg" xmlns:xlink="http://www.w3.org/1999/xlink" contentStyleType="text/css" height="1272px" preserveAspectRatio="none" style="width:1017px;height:1272px;background:#FFFFFF;" version="1.1" viewBox="0 0 1017 1272" width="1017px" zoomAndPan="magnify"><defs/><g><rect fill="#FF6347" height="45.2188" id="_title" rx="7.5" ry="7.5" style="stroke:#FF0000;stroke-width:2.0;" width="292" x="361.25" y="15"/><text fill="#000000" font-family="sans-serif" font-size="14" font-weight="bold" lengthAdjust="spacing" textLength="195" x="409.75" y="34.5332">Data Science Python Library</text><text fill="#000000" font-family="sans-serif" font-size="14" font-weight="bold" lengthAdjust="spacing" textLength="278" x="370.25" y="52.1426">Architecture for Standardized Guidance</text><ellipse cx="180.5" cy="76.2188" fill="#222222" rx="10" ry="10" style="stroke:#222222;stroke-width:1.0;"/><rect fill="none" height="179.3672" style="stroke:#000000;stroke-width:1.5;" width="931" x="75.5" y="96.2188"/><path d="M246.5,96.2188 L246.5,106.8281 L236.5,116.8281 L75.5,116.8281 " fill="none" style="stroke:#000000;stroke-width:1.5;"/><text fill="#000000" font-family="sans-serif" font-size="14" lengthAdjust="spacing" textLength="161" x="78.5" y="111.752">Library and File Structure</text><path d="M635.5,182.0313 L635.5,208.3828 L986.5,208.3828 L986.5,192.0313 L976.5,182.0313 L635.5,182.0313 " fill="#FEFFDD" style="stroke:#181818;stroke-width:0.5;"/><path d="M976.5,182.0313 L976.5,192.0313 L986.5,192.0313 L976.5,182.0313 " fill="#FEFFDD" style="stroke:#181818;stroke-width:0.5;"/><text fill="#000000" font-family="sans-serif" font-size="13" lengthAdjust="spacing" textLength="330" x="641.5" y="200.5264">Objective: Standardization, automation for rinse &amp; repeat.</text><path d="M289.5,126.8281 L289.5,152.3555 L269.5,156.3555 L289.5,160.3555 L289.5,185.8828 A0,0 0 0 0 289.5,185.8828 L583.5,185.8828 A0,0 0 0 0 583.5,185.8828 L583.5,136.8281 L573.5,126.8281 L289.5,126.8281 A0,0 0 0 0 289.5,126.8281 " fill="#FEFFDD" style="stroke:#181818;stroke-width:0.5;"/><path d="M573.5,126.8281 L573.5,136.8281 L583.5,136.8281 L573.5,126.8281 " fill="#FEFFDD" style="stroke:#181818;stroke-width:0.5;"/><text fill="#000000" font-family="sans-serif" font-size="13" lengthAdjust="spacing" textLength="237" x="295.5" y="145.3232">Delete .git folder and initilize as new repo</text><text fill="#000000" font-family="sans-serif" font-size="13" lengthAdjust="spacing" textLength="112" x="295.5" y="161.6748">For more guidance:</text><text fill="#000000" font-family="sans-serif" font-size="13" lengthAdjust="spacing" textLength="273" x="295.5" y="178.0264">https://github.com/vamseeachanta/py_package</text><rect fill="#F1F1F1" height="35.0938" rx="12.5" ry="12.5" style="stroke:#181818;stroke-width:0.5;" width="178" x="91.5" y="138.8086"/><text fill="#000000" font-family="sans-serif" font-size="12" lengthAdjust="spacing" textLength="158" x="101.5" y="161.2656">Clone existing repo of choice</text><path d="M295.5,220.8828 L295.5,238.2344 L275.5,242.2344 L295.5,246.2344 L295.5,263.5859 A0,0 0 0 0 295.5,263.5859 L625.5,263.5859 A0,0 0 0 0 625.5,263.5859 L625.5,230.8828 L615.5,220.8828 L295.5,220.8828 A0,0 0 0 0 295.5,220.8828 " fill="#FEFFDD" style="stroke:#181818;stroke-width:0.5;"/><path d="M615.5,220.8828 L615.5,230.8828 L625.5,230.8828 L615.5,220.8828 " fill="#FEFFDD" style="stroke:#181818;stroke-width:0.5;"/><text fill="#000000" font-family="sans-serif" font-size="13" lengthAdjust="spacing" textLength="112" x="301.5" y="239.3779">For more guidance:</text><text fill="#000000" font-family="sans-serif" font-size="13" lengthAdjust="spacing" textLength="309" x="301.5" y="255.7295">https://drivendata.github.io/cookiecutter-data-science/</text><rect fill="#F1F1F1" height="35.0938" rx="12.5" ry="12.5" style="stroke:#181818;stroke-width:0.5;" width="190" x="85.5" y="224.6875"/><text fill="#000000" font-family="sans-serif" font-size="12" lengthAdjust="spacing" textLength="170" x="95.5" y="247.1445">Adapt folder structure as suited</text><rect fill="none" height="240.2969" style="stroke:#000000;stroke-width:1.5;" width="811" x="77.5" y="285.5859"/><path d="M138.5,285.5859 L138.5,296.1953 L128.5,306.1953 L77.5,306.1953 " fill="none" style="stroke:#000000;stroke-width:1.5;"/><text fill="#000000" font-family="sans-serif" font-size="14" lengthAdjust="spacing" textLength="51" x="80.5" y="301.1191">Start-up</text><path d="M633.5,400.3633 L633.5,426.7148 L868.5,426.7148 L868.5,410.3633 L858.5,400.3633 L633.5,400.3633 " fill="#FEFFDD" style="stroke:#181818;stroke-width:0.5;"/><path d="M858.5,400.3633 L858.5,410.3633 L868.5,410.3633 L858.5,400.3633 " fill="#FEFFDD" style="stroke:#181818;stroke-width:0.5;"/><text fill="#000000" font-family="sans-serif" font-size="13" lengthAdjust="spacing" textLength="214" x="639.5" y="418.8584">Objective: Flexibility, automation etc.</text><path d="M254.5,327.5664 L254.5,336.7422 L234.5,340.7422 L254.5,344.7422 L254.5,353.918 A0,0 0 0 0 254.5,353.918 L523.5,353.918 A0,0 0 0 0 523.5,353.918 L523.5,337.5664 L513.5,327.5664 L254.5,327.5664 A0,0 0 0 0 254.5,327.5664 " fill="#FEFFDD" style="stroke:#181818;stroke-width:0.5;"/><path d="M513.5,327.5664 L513.5,337.5664 L523.5,337.5664 L513.5,327.5664 " fill="#FEFFDD" style="stroke:#181818;stroke-width:0.5;"/><text fill="#000000" font-family="sans-serif" font-size="13" lengthAdjust="spacing" textLength="248" x="260.5" y="346.0615">Options: json in cmd, yml (or toml) file, csv</text><rect fill="#F1F1F1" height="35.0938" rx="12.5" ry="12.5" style="stroke:#181818;stroke-width:0.5;" width="108" x="126.5" y="323.1953"/><text fill="#000000" font-family="sans-serif" font-size="12" lengthAdjust="spacing" textLength="88" x="136.5" y="345.6523">Providing inputs</text><path d="M259.5,368.2891 L259.5,401.9922 L239.5,405.9922 L259.5,409.9922 L259.5,443.6953 A0,0 0 0 0 259.5,443.6953 L602.5,443.6953 A0,0 0 0 0 602.5,443.6953 L602.5,378.2891 L592.5,368.2891 L259.5,368.2891 A0,0 0 0 0 259.5,368.2891 " fill="#FEFFDD" style="stroke:#181818;stroke-width:0.5;"/><path d="M592.5,368.2891 L592.5,378.2891 L602.5,378.2891 L592.5,368.2891 " fill="#FEFFDD" style="stroke:#181818;stroke-width:0.5;"/><text fill="#000000" font-family="sans-serif" font-size="13" lengthAdjust="spacing" textLength="318" x="265.5" y="386.7842">Data science runs when parametric expands . Options:</text><text fill="#000000" font-family="sans-serif" font-size="13" lengthAdjust="spacing" textLength="245" x="281.5" y="403.1357">json string as cmd arguments to run script</text><text fill="#000000" font-family="sans-serif" font-size="13" lengthAdjust="spacing" textLength="175" x="281.5" y="419.4873">ascii (.yaml, .json or .toml) file</text><text fill="#000000" font-family="sans-serif" font-size="13" lengthAdjust="spacing" textLength="94" x="281.5" y="435.8389">csv for data only</text><rect fill="#F1F1F1" height="35.0938" rx="12.5" ry="12.5" style="stroke:#181818;stroke-width:0.5;" width="118" x="121.5" y="388.4453"/><text fill="#000000" font-family="sans-serif" font-size="12" lengthAdjust="spacing" textLength="98" x="131.5" y="410.9023">App Configuration</text><path d="M293.5,467.4375 L293.5,484.7891 L273.5,488.7891 L293.5,492.7891 L293.5,510.1406 A0,0 0 0 0 293.5,510.1406 L623.5,510.1406 A0,0 0 0 0 623.5,510.1406 L623.5,477.4375 L613.5,467.4375 L293.5,467.4375 A0,0 0 0 0 293.5,467.4375 " fill="#FEFFDD" style="stroke:#181818;stroke-width:0.5;"/><path d="M613.5,467.4375 L613.5,477.4375 L623.5,477.4375 L613.5,467.4375 " fill="#FEFFDD" style="stroke:#181818;stroke-width:0.5;"/><text fill="#000000" font-family="sans-serif" font-size="13" lengthAdjust="spacing" textLength="134" x="299.5" y="485.9326">See below for guidance</text><text fill="#000000" font-family="sans-serif" font-size="13" lengthAdjust="spacing" textLength="309" x="299.5" y="502.2842">https://drivendata.github.io/cookiecutter-data-science/</text><rect fill="#F1F1F1" height="50.1875" rx="12.5" ry="12.5" style="stroke:#181818;stroke-width:0.5;" width="186" x="87.5" y="463.6953"/><text fill="#000000" font-family="sans-serif" font-size="12" lengthAdjust="spacing" textLength="146" x="97.5" y="486.1523">Environment Configuration</text><text fill="#000000" font-family="sans-serif" font-size="12" lengthAdjust="spacing" textLength="166" x="97.5" y="501.2461">(secrets, internal libraries etc.)</text><rect fill="none" height="93.332" style="stroke:#000000;stroke-width:1.5;" width="784" x="135" y="535.8828"/><path d="M348,535.8828 L348,546.4922 L338,556.4922 L135,556.4922 " fill="none" style="stroke:#000000;stroke-width:1.5;"/><text fill="#000000" font-family="sans-serif" font-size="14" lengthAdjust="spacing" textLength="203" x="138" y="551.416">Test Driven Development (TDD)</text><path d="M540,580.8633 L540,607.2148 L899,607.2148 L899,590.8633 L889,580.8633 L540,580.8633 " fill="#FEFFDD" style="stroke:#181818;stroke-width:0.5;"/><path d="M889,580.8633 L889,590.8633 L899,590.8633 L889,580.8633 " fill="#FEFFDD" style="stroke:#181818;stroke-width:0.5;"/><text fill="#000000" font-family="sans-serif" font-size="13" lengthAdjust="spacing" textLength="338" x="546" y="599.3584">Objective: TDD advocacy, automation, easy reuse of code.</text><path d="M236,572.6875 L236,590.0391 L216,594.0391 L236,598.0391 L236,615.3906 A0,0 0 0 0 236,615.3906 L530,615.3906 A0,0 0 0 0 530,615.3906 L530,582.6875 L520,572.6875 L236,572.6875 A0,0 0 0 0 236,572.6875 " fill="#FEFFDD" style="stroke:#181818;stroke-width:0.5;"/><path d="M520,572.6875 L520,582.6875 L530,582.6875 L520,572.6875 " fill="#FEFFDD" style="stroke:#181818;stroke-width:0.5;"/><text fill="#000000" font-family="sans-serif" font-size="13" lengthAdjust="spacing" textLength="160" x="242" y="591.1826">For more specific guidance:</text><text fill="#000000" font-family="sans-serif" font-size="13" lengthAdjust="spacing" textLength="273" x="242" y="607.5342">https://github.com/vamseeachanta/py_package</text><rect fill="#F1F1F1" height="35.0938" rx="12.5" ry="12.5" style="stroke:#181818;stroke-width:0.5;" width="71" x="145" y="576.4922"/><text fill="#000000" font-family="sans-serif" font-size="12" lengthAdjust="spacing" textLength="51" x="155" y="598.9492">Write test</text><rect fill="none" height="258.6719" style="stroke:#000000;stroke-width:1.5;" width="943" x="11" y="639.2148"/><path d="M266,639.2148 L266,649.8242 L256,659.8242 L11,659.8242 " fill="none" style="stroke:#000000;stroke-width:1.5;"/><text fill="#000000" font-family="sans-serif" font-size="14" lengthAdjust="spacing" textLength="245" x="14" y="654.748">Development, Testing and Deployment</text><path d="M664,755.2773 L664,781.6289 L934,781.6289 L934,765.2773 L924,755.2773 L664,755.2773 " fill="#FEFFDD" style="stroke:#181818;stroke-width:0.5;"/><path d="M924,755.2773 L924,765.2773 L934,765.2773 L924,755.2773 " fill="#FEFFDD" style="stroke:#181818;stroke-width:0.5;"/><text fill="#000000" font-family="sans-serif" font-size="13" lengthAdjust="spacing" textLength="249" x="670" y="773.7725">Objective: Automation, easy reuse of code.</text><path d="M360,676.0195 L360,693.3711 L340,697.3711 L360,701.3711 L360,718.7227 A0,0 0 0 0 360,718.7227 L654,718.7227 A0,0 0 0 0 654,718.7227 L654,686.0195 L644,676.0195 L360,676.0195 A0,0 0 0 0 360,676.0195 " fill="#FEFFDD" style="stroke:#181818;stroke-width:0.5;"/><path d="M644,676.0195 L644,686.0195 L654,686.0195 L644,676.0195 " fill="#FEFFDD" style="stroke:#181818;stroke-width:0.5;"/><text fill="#000000" font-family="sans-serif" font-size="13" lengthAdjust="spacing" textLength="160" x="366" y="694.5146">For more specific guidance:</text><text fill="#000000" font-family="sans-serif" font-size="13" lengthAdjust="spacing" textLength="273" x="366" y="710.8662">https://github.com/vamseeachanta/py_package</text><rect fill="#F1F1F1" height="35.0938" rx="12.5" ry="12.5" style="stroke:#181818;stroke-width:0.5;" width="319" x="21" y="679.8242"/><text fill="#000000" font-family="sans-serif" font-size="12" lengthAdjust="spacing" textLength="299" x="31" y="702.2813">Automate all repeat (performed &gt; n=2? times) activities</text><path d="M271.5,728.7227 L271.5,803.3047 L251.5,807.3047 L271.5,811.3047 L271.5,885.8867 A0,0 0 0 0 271.5,885.8867 L589.5,885.8867 A0,0 0 0 0 589.5,885.8867 L589.5,738.7227 L579.5,728.7227 L271.5,728.7227 A0,0 0 0 0 271.5,728.7227 " fill="#FEFFDD" style="stroke:#181818;stroke-width:0.5;"/><path d="M579.5,728.7227 L579.5,738.7227 L589.5,738.7227 L579.5,728.7227 " fill="#FEFFDD" style="stroke:#181818;stroke-width:0.5;"/><text fill="#000000" font-family="sans-serif" font-size="13" lengthAdjust="spacing" textLength="176" x="277.5" y="747.2178">Refactor as much as possible:</text><text fill="#000000" font-family="sans-serif" font-size="13" lengthAdjust="spacing" textLength="277" x="293.5" y="763.5693">a/ Library Level: Identify common code to group.</text><text fill="#000000" font-family="sans-serif" font-size="13" lengthAdjust="spacing" textLength="117" x="293.5" y="779.9209">Classify into folders:</text><text fill="#000000" font-family="sans-serif" font-size="13" lengthAdjust="spacing" textLength="61" x="309.5" y="796.2725">i. common</text><text fill="#000000" font-family="sans-serif" font-size="13" lengthAdjust="spacing" textLength="86" x="309.5" y="812.624">ii. app_specific</text><text fill="#000000" font-family="sans-serif" font-size="13" lengthAdjust="spacing" textLength="162" x="293.5" y="828.9756">b/ Across Multiple Libraries:</text><text fill="#000000" font-family="sans-serif" font-size="13" lengthAdjust="spacing" textLength="223" x="293.5" y="845.3271">- A utility library to use across libraries</text><text fill="#000000" font-family="sans-serif" font-size="13" lengthAdjust="spacing" textLength="132" x="293.5" y="861.6787">- Avoid overengineering</text><text fill="#000000" font-family="sans-serif" font-size="13" lengthAdjust="spacing" textLength="261" x="293.5" y="878.0303">- Keep it basic so back-compatibility is easy.</text><rect fill="#F1F1F1" height="35.0938" rx="12.5" ry="12.5" style="stroke:#181818;stroke-width:0.5;" width="142" x="109.5" y="789.7578"/><text fill="#000000" font-family="sans-serif" font-size="12" lengthAdjust="spacing" textLength="122" x="119.5" y="812.2148">Refactor to clean code</text><rect fill="none" height="285.1797" style="stroke:#000000;stroke-width:1.5;" width="435" x="116" y="907.8867"/><path d="M220,907.8867 L220,918.4961 L210,928.4961 L116,928.4961 " fill="none" style="stroke:#000000;stroke-width:1.5;"/><text fill="#000000" font-family="sans-serif" font-size="14" lengthAdjust="spacing" textLength="94" x="119" y="923.4199">Output Results</text><path d="M255,938.4961 L255,1004.9023 L235,1008.9023 L255,1012.9023 L255,1079.3086 A0,0 0 0 0 255,1079.3086 L541,1079.3086 A0,0 0 0 0 541,1079.3086 L541,948.4961 L531,938.4961 L255,938.4961 A0,0 0 0 0 255,938.4961 " fill="#FEFFDD" style="stroke:#181818;stroke-width:0.5;"/><path d="M531,938.4961 L531,948.4961 L541,948.4961 L531,938.4961 " fill="#FEFFDD" style="stroke:#181818;stroke-width:0.5;"/><text fill="#000000" font-family="sans-serif" font-size="13" lengthAdjust="spacing" textLength="173" x="261" y="956.9912">saved to folder in priority order</text><text fill="#000000" font-family="sans-serif" font-size="13" lengthAdjust="spacing" textLength="249" x="277" y="973.3428">a. output to results folder inside data_folder</text><text fill="#000000" font-family="sans-serif" font-size="13" lengthAdjust="spacing" textLength="241" x="277" y="989.6943">b. if no data provided, output results folder</text><text fill="#000000" font-family="sans-serif" font-size="13" lengthAdjust="spacing" textLength="191" x="289" y="1006.0459">in current working directory (cwd)</text><text fill="#000000" font-family="sans-serif" font-size="13" lengthAdjust="spacing" textLength="104" x="261" y="1022.3975">high-level outputs:</text><text fill="#000000" font-family="sans-serif" font-size="13" lengthAdjust="spacing" textLength="114" x="277" y="1038.749">{data_folder}/results</text><text fill="#000000" font-family="sans-serif" font-size="13" lengthAdjust="spacing" textLength="96" x="261" y="1055.1006">detailed outputs:</text><text fill="#000000" font-family="sans-serif" font-size="13" lengthAdjust="spacing" textLength="163" x="277" y="1071.4521">{data_folder}/results/detailed</text><rect fill="#F1F1F1" height="35.0938" rx="12.5" ry="12.5" style="stroke:#181818;stroke-width:0.5;" width="109" x="126" y="991.3555"/><text fill="#000000" font-family="sans-serif" font-size="12" lengthAdjust="spacing" textLength="86" x="139" y="1013.8125">Result Location</text><path d="M244.5,1089.3086 L244.5,1131.1875 L224.5,1135.1875 L244.5,1139.1875 L244.5,1181.0664 A0,0 0 0 0 244.5,1181.0664 L483.5,1181.0664 A0,0 0 0 0 483.5,1181.0664 L483.5,1099.3086 L473.5,1089.3086 L244.5,1089.3086 A0,0 0 0 0 244.5,1089.3086 " fill="#FEFFDD" style="stroke:#181818;stroke-width:0.5;"/><path d="M473.5,1089.3086 L473.5,1099.3086 L483.5,1099.3086 L473.5,1089.3086 " fill="#FEFFDD" style="stroke:#181818;stroke-width:0.5;"/><text fill="#000000" font-family="sans-serif" font-size="13" lengthAdjust="spacing" textLength="157" x="250.5" y="1107.8037">Output data in ascci format</text><text fill="#000000" font-family="sans-serif" font-size="13" lengthAdjust="spacing" textLength="202" x="266.5" y="1124.1553">a. key-value pairs in .yaml(or .json)</text><text fill="#000000" font-family="sans-serif" font-size="13" lengthAdjust="spacing" textLength="121" x="266.5" y="1140.5068">b. matrix data in .csv</text><text fill="#000000" font-family="sans-serif" font-size="13" lengthAdjust="spacing" textLength="124" x="250.5" y="1156.8584">Output visualizations:</text><text fill="#000000" font-family="sans-serif" font-size="13" lengthAdjust="spacing" textLength="187" x="266.5" y="1173.21">2d and 3d charts (.html) in plotly</text><rect fill="#F1F1F1" height="35.0938" rx="12.5" ry="12.5" style="stroke:#181818;stroke-width:0.5;" width="88" x="136.5" y="1117.6406"/><text fill="#000000" font-family="sans-serif" font-size="12" lengthAdjust="spacing" textLength="65" x="149.5" y="1140.0977">Result Type</text><ellipse cx="180.5" cy="1224.0664" fill="none" rx="11" ry="11" style="stroke:#222222;stroke-width:1.0;"/><ellipse cx="180.5" cy="1224.0664" fill="#222222" rx="6" ry="6" style="stroke:#111111;stroke-width:1.0;"/><line style="stroke:#181818;stroke-width:1.0;" x1="180.5" x2="180.5" y1="173.9023" y2="224.6875"/><polygon fill="#181818" points="176.5,214.6875,180.5,224.6875,184.5,214.6875,180.5,218.6875" style="stroke:#181818;stroke-width:1.0;"/><line style="stroke:#181818;stroke-width:1.0;" x1="180.5" x2="180.5" y1="86.2188" y2="138.8086"/><polygon fill="#181818" points="176.5,128.8086,180.5,138.8086,184.5,128.8086,180.5,132.8086" style="stroke:#181818;stroke-width:1.0;"/><line style="stroke:#181818;stroke-width:1.0;" x1="180.5" x2="180.5" y1="358.2891" y2="388.4453"/><polygon fill="#181818" points="176.5,378.4453,180.5,388.4453,184.5,378.4453,180.5,382.4453" style="stroke:#181818;stroke-width:1.0;"/><line style="stroke:#181818;stroke-width:1.0;" x1="180.5" x2="180.5" y1="423.5391" y2="463.6953"/><polygon fill="#181818" points="176.5,453.6953,180.5,463.6953,184.5,453.6953,180.5,457.6953" style="stroke:#181818;stroke-width:1.0;"/><line style="stroke:#181818;stroke-width:1.0;" x1="180.5" x2="180.5" y1="259.7813" y2="323.1953"/><polygon fill="#181818" points="176.5,313.1953,180.5,323.1953,184.5,313.1953,180.5,317.1953" style="stroke:#181818;stroke-width:1.0;"/><line style="stroke:#181818;stroke-width:1.0;" x1="180.5" x2="180.5" y1="513.8828" y2="576.4922"/><polygon fill="#181818" points="176.5,566.4922,180.5,576.4922,184.5,566.4922,180.5,570.4922" style="stroke:#181818;stroke-width:1.0;"/><line style="stroke:#181818;stroke-width:1.0;" x1="180.5" x2="180.5" y1="714.918" y2="789.7578"/><polygon fill="#181818" points="176.5,779.7578,180.5,789.7578,184.5,779.7578,180.5,783.7578" style="stroke:#181818;stroke-width:1.0;"/><line style="stroke:#181818;stroke-width:1.0;" x1="180.5" x2="180.5" y1="611.5859" y2="679.8242"/><polygon fill="#181818" points="176.5,669.8242,180.5,679.8242,184.5,669.8242,180.5,673.8242" style="stroke:#181818;stroke-width:1.0;"/><line style="stroke:#181818;stroke-width:1.0;" x1="180.5" x2="180.5" y1="1026.4492" y2="1117.6406"/><polygon fill="#181818" points="176.5,1107.6406,180.5,1117.6406,184.5,1107.6406,180.5,1111.6406" style="stroke:#181818;stroke-width:1.0;"/><line style="stroke:#181818;stroke-width:1.0;" x1="180.5" x2="180.5" y1="824.8516" y2="991.3555"/><polygon fill="#181818" points="176.5,981.3555,180.5,991.3555,184.5,981.3555,180.5,985.3555" style="stroke:#181818;stroke-width:1.0;"/><line style="stroke:#181818;stroke-width:1.0;" x1="180.5" x2="180.5" y1="1152.7344" y2="1213.0664"/><polygon fill="#181818" points="176.5,1203.0664,180.5,1213.0664,184.5,1203.0664,180.5,1207.0664" style="stroke:#181818;stroke-width:1.0;"/><rect fill="none" height="25.1563" style="stroke:none;stroke-width:1.0;" width="154" x="430.25" y="1234.0664"/><text fill="#888888" font-family="sans-serif" font-size="10" lengthAdjust="spacing" textLength="96" x="459.25" y="1244.4473">2022.10.30 at 07:42</text><text fill="#888888" font-family="sans-serif" font-size="10" lengthAdjust="spacing" textLength="154" x="430.25" y="1257.0254">data_science_architecture.puml</text><!--MD5=[b788bbbb758135f1abb31b7fa83325a1]
@startuml data_science_architecture
skinparam titleBorderRoundCorner 15
skinparam titleBorderThickness 2
skinparam titleBorderColor red
skinparam titleBackgroundColor Tomato

title Data Science Python Library\n Architecture for Standardized Guidance

start

    partition "Library and File Structure" {

        note right
            Objective: Standardization, automation for rinse & repeat.
        end note

        :Clone existing repo of choice;
            note right
                Delete .git folder and initilize as new repo
                For more guidance:
                https://github.com/vamseeachanta/py_package
            end note
        :Adapt folder structure as suited;
            note right
                For more guidance:
                https://drivendata.github.io/cookiecutter-data-science/
            end note
    }

    partition "Start-up" {

        note right
            Objective: Flexibility, automation etc.
        end note

        :Providing inputs;
            note right
                Options: json in cmd, yml (or toml) file, csv
            end note

        :App Configuration;
            note right
                Data science runs when parametric expands . Options: 
                    json string as cmd arguments to run script
                    ascii (.yaml, .json or .toml) file 
                    csv for data only
            end note

        :Environment Configuration 
        (secrets, internal libraries etc.);
            note right
                See below for guidance
                https://drivendata.github.io/cookiecutter-data-science/
            end note

    }

    partition "Test Driven Development (TDD)" {
        note right
            Objective: TDD advocacy, automation, easy reuse of code.
        end note

    :Write test;
        note right
            For more specific guidance:
            https://github.com/vamseeachanta/py_package
        end note
    }

    partition "Development, Testing and Deployment" {
        note right
            Objective: Automation, easy reuse of code.
        end note

    :Automate all repeat (performed > n=2? times) activities;
        note right
            For more specific guidance:
            https://github.com/vamseeachanta/py_package
        end note
    

    :Refactor to clean code;
        note right
            Refactor as much as possible:
                a/ Library Level: Identify common code to group. 
                Classify into folders:
                    i. common
                    ii. app_specific
                b/ Across Multiple Libraries: 
                - A utility library to use across libraries
                - Avoid overengineering
                - Keep it basic so back-compatibility is easy.
        end note
    }

    partition "Output Results" {
    : Result Location;
        note right
            saved to folder in priority order
                a. output to results folder inside data_folder
                b. if no data provided, output results folder 
                   in current working directory (cwd)
            high-level outputs:
                {data_folder}/results
            detailed outputs:
                {data_folder}/results/detailed
        end note
    : Result Type;
        note right
            Output data in ascci format
                a. key-value pairs in .yaml(or .json)
                b. matrix data in .csv 
            Output visualizations:
                2d and 3d charts (.html) in plotly
        end note
    }

stop

footer
%date("yyyy.MM.dd' at 'HH:mm")
%filename()
end footer

@enduml

@startuml data_science_architecture
skinparam titleBorderRoundCorner 15
skinparam titleBorderThickness 2
skinparam titleBorderColor red
skinparam titleBackgroundColor Tomato

title Data Science Python Library\n Architecture for Standardized Guidance

start

    partition "Library and File Structure" {

        note right
            Objective: Standardization, automation for rinse & repeat.
        end note

        :Clone existing repo of choice;
            note right
                Delete .git folder and initilize as new repo
                For more guidance:
                https://github.com/vamseeachanta/py_package
            end note
        :Adapt folder structure as suited;
            note right
                For more guidance:
                https://drivendata.github.io/cookiecutter-data-science/
            end note
    }

    partition "Start-up" {

        note right
            Objective: Flexibility, automation etc.
        end note

        :Providing inputs;
            note right
                Options: json in cmd, yml (or toml) file, csv
            end note

        :App Configuration;
            note right
                Data science runs when parametric expands . Options: 
                    json string as cmd arguments to run script
                    ascii (.yaml, .json or .toml) file 
                    csv for data only
            end note

        :Environment Configuration 
        (secrets, internal libraries etc.);
            note right
                See below for guidance
                https://drivendata.github.io/cookiecutter-data-science/
            end note

    }

    partition "Test Driven Development (TDD)" {
        note right
            Objective: TDD advocacy, automation, easy reuse of code.
        end note

    :Write test;
        note right
            For more specific guidance:
            https://github.com/vamseeachanta/py_package
        end note
    }

    partition "Development, Testing and Deployment" {
        note right
            Objective: Automation, easy reuse of code.
        end note

    :Automate all repeat (performed > n=2? times) activities;
        note right
            For more specific guidance:
            https://github.com/vamseeachanta/py_package
        end note
    

    :Refactor to clean code;
        note right
            Refactor as much as possible:
                a/ Library Level: Identify common code to group. 
                Classify into folders:
                    i. common
                    ii. app_specific
                b/ Across Multiple Libraries: 
                - A utility library to use across libraries
                - Avoid overengineering
                - Keep it basic so back-compatibility is easy.
        end note
    }

    partition "Output Results" {
    : Result Location;
        note right
            saved to folder in priority order
                a. output to results folder inside data_folder
                b. if no data provided, output results folder 
                   in current working directory (cwd)
            high-level outputs:
                {data_folder}/results
            detailed outputs:
                {data_folder}/results/detailed
        end note
    : Result Type;
        note right
            Output data in ascci format
                a. key-value pairs in .yaml(or .json)
                b. matrix data in .csv 
            Output visualizations:
                2d and 3d charts (.html) in plotly
        end note
    }

stop

footer
2022.10.30 at 07:42
data_science_architecture.puml
end footer

@enduml

PlantUML version 1.2022.8(Sun Sep 25 04:00:33 CDT 2022)
(GPL source distribution)
Java Runtime: OpenJDK Runtime Environment
JVM: OpenJDK 64-Bit Server VM
Default Encoding: UTF-8
Language: en
Country: US
--></g></svg>