<?xml version="1.0" encoding="UTF-8" standalone="no"?><svg xmlns="http://www.w3.org/2000/svg" xmlns:xlink="http://www.w3.org/1999/xlink" contentStyleType="text/css" height="1085px" preserveAspectRatio="none" style="width:616px;height:1085px;background:#FFFFFF;" version="1.1" viewBox="0 0 616 1085" width="616px" zoomAndPan="magnify"><defs/><g><rect fill="#FF6347" height="45.2188" id="_title" rx="7.5" ry="7.5" style="stroke:#FF0000;stroke-width:2.0;" width="223" x="195" y="15"/><text fill="#000000" font-family="sans-serif" font-size="14" font-weight="bold" lengthAdjust="spacing" textLength="209" x="200" y="34.5332">Python Package Development</text><text fill="#000000" font-family="sans-serif" font-size="14" font-weight="bold" lengthAdjust="spacing" textLength="174" x="221.5" y="52.1426">Recommended Practices</text><ellipse cx="162" cy="76.2188" fill="#222222" rx="10" ry="10" style="stroke:#222222;stroke-width:1.0;"/><rect fill="none" height="349.8047" style="stroke:#000000;stroke-width:1.5;" width="572" x="33" y="96.2188"/><path d="M167,96.2188 L167,106.8281 L157,116.8281 L33,116.8281 " fill="none" style="stroke:#000000;stroke-width:1.5;"/><text fill="#000000" font-family="sans-serif" font-size="14" lengthAdjust="spacing" textLength="124" x="36" y="111.752">New Library - Setup</text><path d="M301,133.0234 L301,150.375 L281,154.375 L301,158.375 L301,175.7266 A0,0 0 0 0 301,175.7266 L595,175.7266 A0,0 0 0 0 595,175.7266 L595,143.0234 L585,133.0234 L301,133.0234 A0,0 0 0 0 301,133.0234 " fill="#FEFFDD" style="stroke:#181818;stroke-width:0.5;"/><path d="M585,133.0234 L585,143.0234 L595,143.0234 L585,133.0234 " fill="#FEFFDD" style="stroke:#181818;stroke-width:0.5;"/><text fill="#000000" font-family="sans-serif" font-size="13" lengthAdjust="spacing" textLength="118" x="307" y="151.5186">Use library of choice</text><text fill="#000000" font-family="sans-serif" font-size="13" lengthAdjust="spacing" textLength="273" x="307" y="167.8701">https://github.com/vamseeachanta/py_package</text><rect fill="#F1F1F1" height="35.0938" rx="12.5" ry="12.5" style="stroke:#181818;stroke-width:0.5;" width="238" x="43" y="136.8281"/><text fill="#000000" font-family="sans-serif" font-size="12" lengthAdjust="spacing" textLength="218" x="53" y="159.2852">Make a copy/clone of cookiecutter library</text><path d="M237,191.9219 L237,209.2734 L217,213.2734 L237,217.2734 L237,234.625 A0,0 0 0 0 237,234.625 L485,234.625 A0,0 0 0 0 485,234.625 L485,201.9219 L475,191.9219 L237,191.9219 A0,0 0 0 0 237,191.9219 " fill="#FEFFDD" style="stroke:#181818;stroke-width:0.5;"/><path d="M475,191.9219 L475,201.9219 L485,201.9219 L475,191.9219 " fill="#FEFFDD" style="stroke:#181818;stroke-width:0.5;"/><text fill="#000000" font-family="sans-serif" font-size="13" lengthAdjust="spacing" textLength="170" x="243" y="210.417">If cloned, delete the .git folder</text><text fill="#000000" font-family="sans-serif" font-size="13" lengthAdjust="spacing" textLength="227" x="243" y="226.7686">Use IDE to initilize this new repo library</text><rect fill="#F1F1F1" height="35.0938" rx="12.5" ry="12.5" style="stroke:#181818;stroke-width:0.5;" width="110" x="107" y="195.7266"/><text fill="#000000" font-family="sans-serif" font-size="12" lengthAdjust="spacing" textLength="90" x="117" y="218.1836">Map to new repo</text><path d="M247,258.9961 L247,268.1719 L227,272.1719 L247,276.1719 L247,285.3477 A0,0 0 0 0 247,285.3477 L512,285.3477 A0,0 0 0 0 512,285.3477 L512,268.9961 L502,258.9961 L247,258.9961 A0,0 0 0 0 247,258.9961 " fill="#FEFFDD" style="stroke:#181818;stroke-width:0.5;"/><path d="M502,258.9961 L502,268.9961 L512,268.9961 L502,258.9961 " fill="#FEFFDD" style="stroke:#181818;stroke-width:0.5;"/><text fill="#000000" font-family="sans-serif" font-size="13" lengthAdjust="spacing" textLength="244" x="253" y="277.4912">py_package, py_package/src/py_package</text><rect fill="#F1F1F1" height="35.0938" rx="12.5" ry="12.5" style="stroke:#181818;stroke-width:0.5;" width="130" x="97" y="254.625"/><text fill="#000000" font-family="sans-serif" font-size="12" lengthAdjust="spacing" textLength="110" x="107" y="277.082">Rename key folders</text><path d="M255.5,305.9141 L255.5,323.2656 L235.5,327.2656 L255.5,331.2656 L255.5,348.6172 A0,0 0 0 0 255.5,348.6172 L588.5,348.6172 A0,0 0 0 0 588.5,348.6172 L588.5,315.9141 L578.5,305.9141 L255.5,305.9141 A0,0 0 0 0 255.5,305.9141 " fill="#FEFFDD" style="stroke:#181818;stroke-width:0.5;"/><path d="M578.5,305.9141 L578.5,315.9141 L588.5,315.9141 L578.5,305.9141 " fill="#FEFFDD" style="stroke:#181818;stroke-width:0.5;"/><text fill="#000000" font-family="sans-serif" font-size="13" lengthAdjust="spacing" textLength="250" x="261.5" y="324.4092">py_package/src/py_package/calculation.py</text><text fill="#000000" font-family="sans-serif" font-size="13" lengthAdjust="spacing" textLength="312" x="261.5" y="340.7607">py_package/src/py_package/tests/test_calculation.py</text><rect fill="#F1F1F1" height="35.0938" rx="12.5" ry="12.5" style="stroke:#181818;stroke-width:0.5;" width="147" x="88.5" y="309.7188"/><text fill="#000000" font-family="sans-serif" font-size="12" lengthAdjust="spacing" textLength="127" x="98.5" y="332.1758">Rename key filenames</text><path d="M251.5,358.6172 L251.5,392.3203 L231.5,396.3203 L251.5,400.3203 L251.5,434.0234 A0,0 0 0 0 251.5,434.0234 L415.5,434.0234 A0,0 0 0 0 415.5,434.0234 L415.5,368.6172 L405.5,358.6172 L251.5,358.6172 A0,0 0 0 0 251.5,358.6172 " fill="#FEFFDD" style="stroke:#181818;stroke-width:0.5;"/><path d="M405.5,358.6172 L405.5,368.6172 L415.5,368.6172 L405.5,358.6172 " fill="#FEFFDD" style="stroke:#181818;stroke-width:0.5;"/><text fill="#000000" font-family="sans-serif" font-size="13" lengthAdjust="spacing" textLength="143" x="257.5" y="377.1123">Update key items below:</text><text fill="#000000" font-family="sans-serif" font-size="13" lengthAdjust="spacing" textLength="93" x="257.5" y="393.4639">- package name</text><text fill="#000000" font-family="sans-serif" font-size="13" lengthAdjust="spacing" textLength="88" x="257.5" y="409.8154">- dependencies</text><text fill="#000000" font-family="sans-serif" font-size="13" lengthAdjust="spacing" textLength="127" x="257.5" y="426.167">- version management</text><rect fill="#F1F1F1" height="35.0938" rx="12.5" ry="12.5" style="stroke:#181818;stroke-width:0.5;" width="139" x="92.5" y="378.7734"/><text fill="#000000" font-family="sans-serif" font-size="12" lengthAdjust="spacing" textLength="119" x="102.5" y="401.2305">Update pyproject.toml</text><rect fill="none" height="193.2656" style="stroke:#000000;stroke-width:1.5;" width="435" x="81.5" y="456.0234"/><path d="M174.5,456.0234 L174.5,466.6328 L164.5,476.6328 L81.5,476.6328 " fill="none" style="stroke:#000000;stroke-width:1.5;"/><text fill="#000000" font-family="sans-serif" font-size="14" lengthAdjust="spacing" textLength="83" x="84.5" y="471.5566">Development</text><path d="M217.5,492.8281 L217.5,510.1797 L197.5,514.1797 L217.5,518.1797 L217.5,535.5313 A0,0 0 0 0 217.5,535.5313 L440.5,535.5313 A0,0 0 0 0 440.5,535.5313 L440.5,502.8281 L430.5,492.8281 L217.5,492.8281 A0,0 0 0 0 217.5,492.8281 " fill="#FEFFDD" style="stroke:#181818;stroke-width:0.5;"/><path d="M430.5,492.8281 L430.5,502.8281 L440.5,502.8281 L430.5,492.8281 " fill="#FEFFDD" style="stroke:#181818;stroke-width:0.5;"/><text fill="#000000" font-family="sans-serif" font-size="13" lengthAdjust="spacing" textLength="202" x="223.5" y="511.3232">For Test Driven Development (TDD)</text><text fill="#000000" font-family="sans-serif" font-size="13" lengthAdjust="spacing" textLength="118" x="223.5" y="527.6748">Modify template test</text><rect fill="#F1F1F1" height="35.0938" rx="12.5" ry="12.5" style="stroke:#181818;stroke-width:0.5;" width="71" x="126.5" y="496.6328"/><text fill="#000000" font-family="sans-serif" font-size="12" lengthAdjust="spacing" textLength="51" x="136.5" y="519.0898">Write test</text><path d="M252.5,545.5313 L252.5,587.4102 L232.5,591.4102 L252.5,595.4102 L252.5,637.2891 A0,0 0 0 0 252.5,637.2891 L506.5,637.2891 A0,0 0 0 0 506.5,637.2891 L506.5,555.5313 L496.5,545.5313 L252.5,545.5313 A0,0 0 0 0 252.5,545.5313 " fill="#FEFFDD" style="stroke:#181818;stroke-width:0.5;"/><path d="M496.5,545.5313 L496.5,555.5313 L506.5,555.5313 L496.5,545.5313 " fill="#FEFFDD" style="stroke:#181818;stroke-width:0.5;"/><text fill="#000000" font-family="sans-serif" font-size="13" lengthAdjust="spacing" textLength="76" x="258.5" y="564.0264">Use .toml file</text><text fill="#000000" font-family="sans-serif" font-size="13" font-style="italic" lengthAdjust="spacing" textLength="139" x="338.5" y="564.0264">python -m pip install -e .</text><text fill="#000000" font-family="sans-serif" font-size="13" lengthAdjust="spacing" textLength="19" x="258.5" y="580.3779">(or)</text><text fill="#000000" font-family="sans-serif" font-size="13" lengthAdjust="spacing" textLength="93" x="258.5" y="596.7295">Use conda-build</text><text fill="#000000" font-family="sans-serif" font-size="13" font-style="italic" lengthAdjust="spacing" textLength="91" x="355.5" y="596.7295">conda develop .</text><text fill="#000000" font-family="sans-serif" font-size="13" lengthAdjust="spacing" textLength="229" x="258.5" y="613.0811">Development in an IDE with breakpoints</text><text fill="#000000" font-family="sans-serif" font-size="13" lengthAdjust="spacing" textLength="98" x="258.5" y="629.4326">on local files etc.</text><rect fill="#F1F1F1" height="50.1875" rx="12.5" ry="12.5" style="stroke:#181818;stroke-width:0.5;" width="141" x="91.5" y="566.3164"/><text fill="#000000" font-family="sans-serif" font-size="12" lengthAdjust="spacing" textLength="121" x="101.5" y="588.7734">Install Package locally</text><text fill="#000000" font-family="sans-serif" font-size="12" lengthAdjust="spacing" textLength="97" x="101.5" y="603.8672">an editable install</text><rect fill="none" height="91.5078" style="stroke:#000000;stroke-width:1.5;" width="513" x="55.5" y="659.2891"/><path d="M112.5,659.2891 L112.5,669.8984 L102.5,679.8984 L55.5,679.8984 " fill="none" style="stroke:#000000;stroke-width:1.5;"/><text fill="#000000" font-family="sans-serif" font-size="14" lengthAdjust="spacing" textLength="47" x="58.5" y="674.8223">Testing</text><path d="M278.5,696.0938 L278.5,713.4453 L258.5,717.4453 L278.5,721.4453 L278.5,738.7969 A0,0 0 0 0 278.5,738.7969 L558.5,738.7969 A0,0 0 0 0 558.5,738.7969 L558.5,706.0938 L548.5,696.0938 L278.5,696.0938 A0,0 0 0 0 278.5,696.0938 " fill="#FEFFDD" style="stroke:#181818;stroke-width:0.5;"/><path d="M548.5,696.0938 L548.5,706.0938 L558.5,706.0938 L548.5,696.0938 " fill="#FEFFDD" style="stroke:#181818;stroke-width:0.5;"/><text fill="#000000" font-family="sans-serif" font-size="13" lengthAdjust="spacing" textLength="11" x="284.5" y="714.5889">1.</text><text fill="#000000" font-family="sans-serif" font-size="13" lengthAdjust="spacing" textLength="199" x="299.5" y="714.5889">TODO Figure out testing in GitHub</text><text fill="#000000" font-family="sans-serif" font-size="13" lengthAdjust="spacing" textLength="259" x="284.5" y="730.9404">Shall include all possible library versions etc.</text><rect fill="#F1F1F1" height="35.0938" rx="12.5" ry="12.5" style="stroke:#181818;stroke-width:0.5;" width="193" x="65.5" y="699.8984"/><text fill="#000000" font-family="sans-serif" font-size="12" lengthAdjust="spacing" textLength="173" x="75.5" y="722.3555">Perform github tests upon push</text><rect fill="none" height="245.9688" style="stroke:#000000;stroke-width:1.5;" width="562.5" x="11" y="760.7969"/><path d="M96,760.7969 L96,771.4063 L86,781.4063 L11,781.4063 " fill="none" style="stroke:#000000;stroke-width:1.5;"/><text fill="#000000" font-family="sans-serif" font-size="14" lengthAdjust="spacing" textLength="75" x="14" y="776.3301">Deployment</text><path d="M279,791.4063 L279,825.1094 L259,829.1094 L279,833.1094 L279,866.8125 A0,0 0 0 0 279,866.8125 L464,866.8125 A0,0 0 0 0 464,866.8125 L464,801.4063 L454,791.4063 L279,791.4063 A0,0 0 0 0 279,791.4063 " fill="#FEFFDD" style="stroke:#181818;stroke-width:0.5;"/><path d="M454,791.4063 L454,801.4063 L464,801.4063 L454,791.4063 " fill="#FEFFDD" style="stroke:#181818;stroke-width:0.5;"/><text fill="#000000" font-family="sans-serif" font-size="13" lengthAdjust="spacing" textLength="164" x="285" y="809.9014">pip install bumpver (optional)</text><text fill="#000000" font-family="sans-serif" font-size="13" lengthAdjust="spacing" textLength="158" x="285" y="826.2529">bumpver update --patch (or)</text><text fill="#000000" font-family="sans-serif" font-size="13" lengthAdjust="spacing" textLength="158" x="285" y="842.6045">bumpver update --major (or)</text><text fill="#000000" font-family="sans-serif" font-size="13" lengthAdjust="spacing" textLength="135" x="285" y="858.9561">bumpver update --minor</text><rect fill="#F1F1F1" height="35.0938" rx="12.5" ry="12.5" style="stroke:#181818;stroke-width:0.5;" width="194" x="65" y="811.5625"/><text fill="#000000" font-family="sans-serif" font-size="12" lengthAdjust="spacing" textLength="171" x="78" y="834.0195">Use bumpver to update version</text><path d="M323,883.0078 L323,900.3594 L303,904.3594 L323,908.3594 L323,925.7109 A0,0 0 0 0 323,925.7109 L433,925.7109 A0,0 0 0 0 433,925.7109 L433,893.0078 L423,883.0078 L323,883.0078 A0,0 0 0 0 323,883.0078 " fill="#FEFFDD" style="stroke:#181818;stroke-width:0.5;"/><path d="M423,883.0078 L423,893.0078 L433,893.0078 L423,883.0078 " fill="#FEFFDD" style="stroke:#181818;stroke-width:0.5;"/><text fill="#000000" font-family="sans-serif" font-size="13" lengthAdjust="spacing" textLength="86" x="329" y="901.5029">pip install build</text><text fill="#000000" font-family="sans-serif" font-size="13" lengthAdjust="spacing" textLength="89" x="329" y="917.8545">python -m build</text><rect fill="#F1F1F1" height="35.0938" rx="12.5" ry="12.5" style="stroke:#181818;stroke-width:0.5;" width="282" x="21" y="886.8125"/><text fill="#000000" font-family="sans-serif" font-size="12" lengthAdjust="spacing" textLength="259" x="34" y="909.2695">Build dist files i.e. Wheels (.whl) and .tar.gz files</text><path d="M251.5,935.7109 L251.5,961.2383 L231.5,965.2383 L251.5,969.2383 L251.5,994.7656 A0,0 0 0 0 251.5,994.7656 L563.5,994.7656 A0,0 0 0 0 563.5,994.7656 L563.5,945.7109 L553.5,935.7109 L251.5,935.7109 A0,0 0 0 0 251.5,935.7109 " fill="#FEFFDD" style="stroke:#181818;stroke-width:0.5;"/><path d="M553.5,935.7109 L553.5,945.7109 L563.5,945.7109 L553.5,935.7109 " fill="#FEFFDD" style="stroke:#181818;stroke-width:0.5;"/><text fill="#000000" font-family="sans-serif" font-size="13" lengthAdjust="spacing" textLength="107" x="257.5" y="954.2061">conda install twine</text><text fill="#000000" font-family="sans-serif" font-size="13" lengthAdjust="spacing" textLength="106" x="257.5" y="970.5576">twine upload dist/*</text><text fill="#000000" font-family="sans-serif" font-size="13" lengthAdjust="spacing" textLength="291" x="257.5" y="986.9092">Need to create pypi account if not already done so</text><rect fill="#F1F1F1" height="35.0938" rx="12.5" ry="12.5" style="stroke:#181818;stroke-width:0.5;" width="139" x="92.5" y="947.6914"/><text fill="#000000" font-family="sans-serif" font-size="12" lengthAdjust="spacing" textLength="116" x="105.5" y="970.1484">Push dist files to pypi</text><ellipse cx="162" cy="1037.7656" fill="none" rx="11" ry="11" style="stroke:#222222;stroke-width:1.0;"/><ellipse cx="162" cy="1037.7656" fill="#222222" rx="6" ry="6" style="stroke:#111111;stroke-width:1.0;"/><line style="stroke:#181818;stroke-width:1.0;" x1="162" x2="162" y1="171.9219" y2="195.7266"/><polygon fill="#181818" points="158,185.7266,162,195.7266,166,185.7266,162,189.7266" style="stroke:#181818;stroke-width:1.0;"/><line style="stroke:#181818;stroke-width:1.0;" x1="162" x2="162" y1="230.8203" y2="254.625"/><polygon fill="#181818" points="158,244.625,162,254.625,166,244.625,162,248.625" style="stroke:#181818;stroke-width:1.0;"/><line style="stroke:#181818;stroke-width:1.0;" x1="162" x2="162" y1="289.7188" y2="309.7188"/><polygon fill="#181818" points="158,299.7188,162,309.7188,166,299.7188,162,303.7188" style="stroke:#181818;stroke-width:1.0;"/><line style="stroke:#181818;stroke-width:1.0;" x1="162" x2="162" y1="344.8125" y2="378.7734"/><polygon fill="#181818" points="158,368.7734,162,378.7734,166,368.7734,162,372.7734" style="stroke:#181818;stroke-width:1.0;"/><line style="stroke:#181818;stroke-width:1.0;" x1="162" x2="162" y1="86.2188" y2="136.8281"/><polygon fill="#181818" points="158,126.8281,162,136.8281,166,126.8281,162,130.8281" style="stroke:#181818;stroke-width:1.0;"/><line style="stroke:#181818;stroke-width:1.0;" x1="162" x2="162" y1="531.7266" y2="566.3164"/><polygon fill="#181818" points="158,556.3164,162,566.3164,166,556.3164,162,560.3164" style="stroke:#181818;stroke-width:1.0;"/><line style="stroke:#181818;stroke-width:1.0;" x1="162" x2="162" y1="413.8672" y2="496.6328"/><polygon fill="#181818" points="158,486.6328,162,496.6328,166,486.6328,162,490.6328" style="stroke:#181818;stroke-width:1.0;"/><line style="stroke:#181818;stroke-width:1.0;" x1="162" x2="162" y1="616.5039" y2="699.8984"/><polygon fill="#181818" points="158,689.8984,162,699.8984,166,689.8984,162,693.8984" style="stroke:#181818;stroke-width:1.0;"/><line style="stroke:#181818;stroke-width:1.0;" x1="162" x2="162" y1="846.6563" y2="886.8125"/><polygon fill="#181818" points="158,876.8125,162,886.8125,166,876.8125,162,880.8125" style="stroke:#181818;stroke-width:1.0;"/><line style="stroke:#181818;stroke-width:1.0;" x1="162" x2="162" y1="921.9063" y2="947.6914"/><polygon fill="#181818" points="158,937.6914,162,947.6914,166,937.6914,162,941.6914" style="stroke:#181818;stroke-width:1.0;"/><line style="stroke:#181818;stroke-width:1.0;" x1="162" x2="162" y1="734.9922" y2="811.5625"/><polygon fill="#181818" points="158,801.5625,162,811.5625,166,801.5625,162,805.5625" style="stroke:#181818;stroke-width:1.0;"/><line style="stroke:#181818;stroke-width:1.0;" x1="162" x2="162" y1="982.7852" y2="1026.7656"/><polygon fill="#181818" points="158,1016.7656,162,1026.7656,166,1016.7656,162,1020.7656" style="stroke:#181818;stroke-width:1.0;"/><rect fill="none" height="25.1563" style="stroke:none;stroke-width:1.0;" width="135" x="239" y="1047.7656"/><text fill="#888888" font-family="sans-serif" font-size="10" lengthAdjust="spacing" textLength="96" x="258.5" y="1058.1465">2022.10.28 at 21:38</text><text fill="#888888" font-family="sans-serif" font-size="10" lengthAdjust="spacing" textLength="135" x="239" y="1070.7246">package_development.puml</text><!--MD5=[22d4ce9f469d9acc72f854ddb015b293]
@startuml package_development
skinparam titleBorderRoundCorner 15
skinparam titleBorderThickness 2
skinparam titleBorderColor red
skinparam titleBackgroundColor Tomato

title Python Package Development \n Recommended Practices

start

    partition "New Library - Setup" {


        :Make a copy/clone of cookiecutter library;
            note right
                Use library of choice
                https://github.com/vamseeachanta/py_package
            end note

        :Map to new repo;
            note right
                If cloned, delete the .git folder
                Use IDE to initilize this new repo library
            end note

        :Rename key folders;
            note right
                py_package, py_package/src/py_package
            end note

        :Rename key filenames;
            note right
                py_package/src/py_package/calculation.py
                py_package/src/py_package/tests/test_calculation.py
            end note

        :Update pyproject.toml;
            note right
                Update key items below:
                - package name
                - dependencies
                - version management
            end note
    }

    partition "Development" {
    :Write test;
        note right
            For Test Driven Development (TDD)
            Modify template test
        end note
    :Install Package locally 
    an editable install;
        note right
            Use .toml file //python -m pip install -e .//
            (or)
            Use conda-build //conda develop .//
            Development in an IDE with breakpoints 
            on local files etc.
        end note
    }

    partition "Testing" {
    :Perform github tests upon push;
        note right
            #TODO Figure out testing in GitHub
            Shall include all possible library versions etc.
        end note
    }


    partition "Deployment" {
    : Use bumpver to update version;
        note right
            pip install bumpver (optional)
            bumpver update - -patch (or)
            bumpver update - -major (or)
            bumpver update - -minor
        end note
    : Build dist files i.e. Wheels (.whl) and .tar.gz files;
        note right
            pip install build
            python -m build
        end note
    : Push dist files to pypi;
        note right
            conda install twine
            twine upload dist/*
            Need to create pypi account if not already done so
        end note
    }

stop

footer
%date("yyyy.MM.dd' at 'HH:mm")
%filename()
end footer

@enduml

@startuml package_development
skinparam titleBorderRoundCorner 15
skinparam titleBorderThickness 2
skinparam titleBorderColor red
skinparam titleBackgroundColor Tomato

title Python Package Development \n Recommended Practices

start

    partition "New Library - Setup" {


        :Make a copy/clone of cookiecutter library;
            note right
                Use library of choice
                https://github.com/vamseeachanta/py_package
            end note

        :Map to new repo;
            note right
                If cloned, delete the .git folder
                Use IDE to initilize this new repo library
            end note

        :Rename key folders;
            note right
                py_package, py_package/src/py_package
            end note

        :Rename key filenames;
            note right
                py_package/src/py_package/calculation.py
                py_package/src/py_package/tests/test_calculation.py
            end note

        :Update pyproject.toml;
            note right
                Update key items below:
                - package name
                - dependencies
                - version management
            end note
    }

    partition "Development" {
    :Write test;
        note right
            For Test Driven Development (TDD)
            Modify template test
        end note
    :Install Package locally 
    an editable install;
        note right
            Use .toml file //python -m pip install -e .//
            (or)
            Use conda-build //conda develop .//
            Development in an IDE with breakpoints 
            on local files etc.
        end note
    }

    partition "Testing" {
    :Perform github tests upon push;
        note right
            #TODO Figure out testing in GitHub
            Shall include all possible library versions etc.
        end note
    }


    partition "Deployment" {
    : Use bumpver to update version;
        note right
            pip install bumpver (optional)
            bumpver update - -patch (or)
            bumpver update - -major (or)
            bumpver update - -minor
        end note
    : Build dist files i.e. Wheels (.whl) and .tar.gz files;
        note right
            pip install build
            python -m build
        end note
    : Push dist files to pypi;
        note right
            conda install twine
            twine upload dist/*
            Need to create pypi account if not already done so
        end note
    }

stop

footer
2022.10.28 at 21:38
package_development.puml
end footer

@enduml

PlantUML version 1.2022.8(Sun Sep 25 04:00:33 CDT 2022)
(GPL source distribution)
Java Runtime: OpenJDK Runtime Environment
JVM: OpenJDK 64-Bit Server VM
Default Encoding: UTF-8
Language: en
Country: US
--></g></svg>